<svg preserveAspectRatio="xMidYMid meet" data-bbox="25.232 20.107 346.959 116.59" viewBox="25.232 20.107 346.959 116.59" xmlns="http://www.w3.org/2000/svg" data-type="color" role="presentation" aria-hidden="true"><defs><style>#comp-krtucykt svg [data-color="1"] {fill: #FFFFFF;}</style></defs>
    <g>
        <path d="M116.43 83c2.69.92 5.39 1.79 8 2.75s5.36 2 8 3.05a20.3 20.3 0 0 1 11.08 10 71.85 71.85 0 0 1 2.9-7.61c4.15-8.15 10.46-13.68 19.73-15.24a27.37 27.37 0 0 1 19 3.35 10.66 10.66 0 0 1 .36 18.15c-2.47 1.6-5.16 1.42-7.86.81-1.5-.34-3-.86-4.47-1.23-3.49-.84-6.08.57-7.07 4s-.73 7 1.64 10a4.72 4.72 0 0 0 5.82 1.56c1.79-.73 3.54-1.56 5.34-2.24a8.93 8.93 0 0 1 7.81.75c.5.28 1 .59 1.63 1 .81-3.45 1.61-6.81 2.38-10.16 3-13.12 6-26.23 9.09-39.34.87-3.74 2.79-6.78 6.48-8.35a11 11 0 0 1 11.82 1.61 10.38 10.38 0 0 1 3.75 10.27c-.57 3.37-1.45 6.68-2.18 9.93 2.83.5 5.62.79 8.29 1.5C234.39 79.2 239.42 82.65 242 89c.6 1.5 1 3.09 1.44 4.69C248.62 82.31 257 75.42 270 75.79c12.16.34 19.69 7.53 24.77 18C300.3 81.5 309.53 74.5 323.3 76c13.28 1.44 20.49 10.27 24.4 22.55v-2.12c0-.71.16-1.44.21-2.16.32-4.78.59-9.56.94-14.33s.58-9.56 1.17-14.3c.81-6.49 6.19-10.23 12.35-9.57s10.38 6.31 9.76 12.6c-.46 4.72-.72 9.45-1.07 14.18l-1.7 23.87c-.4 5.64-.71 11.3-1.23 16.93-.4 4.38-2.56 7.69-6.72 9.39a10.75 10.75 0 0 1-11.58-1.71c-3.62-3-4.27-7.06-3.78-11.45.06-.53.15-1.06.18-1.59s0-.84 0-1.55c-5.58 12.4-14.86 18.73-28.3 17.74-11.25-.82-18.48-7.49-23.06-17.55-6.13 13.28-16.36 19.37-30.89 17.24-10.82-1.59-19.65-10.9-22-22.83-1.45 5.58-2.84 11-4.28 16.46-1.13 4.22-3.59 7.34-7.94 8.43a10.83 10.83 0 0 1-11.55-3.53c-2.77-3.22-2.91-7-2-11 1.63-7.2 3.3-14.39 5-21.59a3.24 3.24 0 0 0-2.28-4.11 3.3 3.3 0 0 0-4.35 2.29c-.71 2.61-1.25 5.26-1.86 7.89-1.19 5.13-2.17 10.32-3.61 15.37-2.45 8.56-11.94 11.18-18.57 5.28-.14-.13-.29-.24-.47-.39-7.32 6.61-15.81 9.23-25.46 7.06-9.81-2.22-15.75-8.9-19.39-17.57a58.28 58.28 0 0 1-3.79 7.29 26 26 0 0 1-18.12 10.92 39.82 39.82 0 0 1-24.09-4 14.6 14.6 0 0 1-6.47-6 11.87 11.87 0 0 1-3.75 7.05A11 11 0 0 1 70.88 125a34.47 34.47 0 0 1-.55-5.18q-.64-11.82-1.22-23.73c-.06-1.29 0-2.58 0-4.11.4.44.74.8 1.06 1.17A57.48 57.48 0 0 0 82 104.23a19.41 19.41 0 0 0 8.11 3.33 12.27 12.27 0 0 0 1.61 0c0-.45 0-.78.07-1.1.23-1.52-.33-2.17-1.93-2.46-4-.75-7.32-3.11-10.14-5.92-3.35-3.33-6.39-7-9.56-10.49-.31-.35-.59-.74-1.06-1.33v5.38c-6.21-7.2-10.87-15.34-14.89-23.87l-.44-.11c-1.7 4.34-3.63 8.61-5 13a67.36 67.36 0 0 0-2.26 11.2 16.07 16.07 0 0 0 .55 6c.84 3.21 3.33 4.49 6.6 3.86a25.06 25.06 0 0 0 9-4.17 11.44 11.44 0 0 1 1-.63 1.77 1.77 0 0 1 2.42.64 1.68 1.68 0 0 1-.26 2.48c-3.83 2.88-7.94 5.28-12.83 5.66-5.59.43-9.52-3.18-10.28-9-.88-6.74.75-13.1 3-19.29 1.71-4.66 4-9.12 5.94-13.68a2.53 2.53 0 0 0 .15-1.62c-1.28-3.74-2.63-7.46-4-11.38-1 .21-2.11.41-3.21.71-4.54 1.22-9 2.57-12.75 5.67-3.48 2.92-3.74 6.16-.43 9.27a46.2 46.2 0 0 0 6.1 4.37c1.3.87 1.73 2 1 3a1.72 1.72 0 0 1-2.28.71c-3.76-1.87-7.3-4.07-9.55-7.77-2.49-4.07-1.72-8.56 1.93-11.93 3.5-3.23 7.8-5 12.26-6.33 2-.61 4-1.08 6-1.63-.36-2.51-.83-5-1.07-7.53-.46-4.75-.59-9.51 1.6-13.94 2.46-5 6.15-5.77 10.62-4.93 3.94.73 7.17 3 10.21 5.56a1.86 1.86 0 0 1 .36 2.82c-.79 1-1.83.87-2.85.21-2.11-1.36-4.2-2.74-6.36-4a7.46 7.46 0 0 0-2.46-.83c-3.58-.6-5.89 1.16-6.82 5-1.07 4.53-.56 9 .11 13.55 0 .05 0 .09.05.14.69 3.32.68 3.26 4 2.86 2.64-.32 5.29-.59 8-.7a3 3 0 0 0 2.54-1.26 86.39 86.39 0 0 1 13.07-13.59c4.14-3.38 8.51-6.39 13.83-7.67 5.76-1.39 10.35 1.23 12 6.92a15.55 15.55 0 0 1 .66 4.57 69.56 69.56 0 0 1-.81 7.62 1.83 1.83 0 0 1-2.55 1.73c-1-.24-1.55-1.33-1.3-2.65a25.1 25.1 0 0 0 .25-9.5c-.84-4.16-3.33-5.78-7.51-4.8-4 .94-7.35 3.17-10.54 5.62a76.4 76.4 0 0 0-12.4 12.18c-.14.17-.26.37-.48.69l6 .35a103.81 103.81 0 0 1 29.51 5.6c5.26 1.9 10.2 4.35 14.27 8.37.75.75 2.4.66 3.65.83a31.38 31.38 0 0 1 14.21 5.4 9.92 9.92 0 0 1 3.87 11.75c-1.45 4.43-5.2 7.62-9.76 7.53-2.4 0-4.79-1-7.19-1.45-1.84-.38-3.68-.74-5.53-1a5.52 5.52 0 0 0-1.63.25zM97 97.58l3.11 2.64c2-10.31-.51-19.61-3.44-28.86l-.49-.1-1.73 3.87a8.73 8.73 0 0 1-.87-1.42c-1.19-3-2.34-6-3.5-9-.66-1.5-1.3-3-2-4.5s-.39-2.54.77-3.08 2.15 0 2.77 1.31c1 2.28 2.06 4.58 3 6.88.69 1.6 1.31 3.23 2 5a27.51 27.51 0 0 1 17.12-10.16 38.18 38.18 0 0 0-11.28-5.84C91 50.29 78.94 49 66.74 48.93a2.29 2.29 0 0 0-1.63.85C62.3 54 59.56 58.17 56.86 62.4a1.69 1.69 0 0 0-.09 1.42q4.6 8.79 9.33 17.51a43.51 43.51 0 0 0 2.54 3.75L72.06 79c-4.79-4.45-6.86-11.91-3.86-14.3.77 3.66 2.64 5.39 5.74 5.3a5.1 5.1 0 0 0 5-4.42 7.62 7.62 0 0 0-.75-3.73c-1-2-3.05-2.57-5.21-2.59a2.13 2.13 0 0 1 .07-.31 2.06 2.06 0 0 1 .33-.27 11.54 11.54 0 0 1 12.35.79 14.41 14.41 0 0 1 4.43 5.25 3.56 3.56 0 0 0 .08.57 11.18 11.18 0 0 1-1.15 10c-.7 1.13-1.6 2.14-2.43 3.24A11.52 11.52 0 0 1 91 86.88c.23 2.5.23 5 .37 7.52.17 3.12.39 6.24.59 9.36a3.92 3.92 0 0 0 3.54-2.31 31.82 31.82 0 0 0 1.5-3.87zm-4.91 10.31c.09 1.45.2 2.7.24 4s0 2.52 0 3.78c3.19-5.85 7.54-7.91 13.87-6.31 3 .76 6 1.9 9 2.55a13.66 13.66 0 0 0 5-.15c.56-.09 1.18-1.06 1.37-1.74.1-.33-.68-1-1.16-1.38a3.57 3.57 0 0 0-1.2-.49c-6.44-2.1-13.19-3.39-19-7.42-1.46 3.77-3.71 6.57-8.1 7.16zm233.65-1.76c-.05-3.53-.66-5.82-2.42-7.68a4.16 4.16 0 0 0-6.85.85 13.51 13.51 0 0 0-1.37 4.67 9.9 9.9 0 0 0 2.29 7.85 4.24 4.24 0 0 0 6.76-.38 9.24 9.24 0 0 0 1.61-5.31zm-51.31 0c0-3.21-.64-5.4-1.93-7.09-2.2-2.88-5.78-2.56-7.55.58a11.11 11.11 0 0 0-.83 8.14 10.17 10.17 0 0 0 2.13 4.17 4.13 4.13 0 0 0 6.52-.47 9.57 9.57 0 0 0 1.68-5.32zm-159.74-46c.46.58.67.88.92 1.15C119 65 118.87 68 115 71a50.79 50.79 0 0 1-6.63 3.79c-.86.48-1.61 1-1.21 2.15a1.66 1.66 0 0 0 2.37 1c3.76-1.48 7.3-3.33 9.9-6.59a8.41 8.41 0 0 0 .33-10.23 2.26 2.26 0 0 0-1.31-1 32 32 0 0 0-3.74.04zM60.61 49l-8.89 1 2.79 8.43z" fill="#ffffff" data-color="1"></path>
        <path d="M94.45 75.08c.84 3.69 1.83 7.37 2.48 11.1s1.08 7.63.14 11.46a15.94 15.94 0 0 1-4.67-9.54 23.73 23.73 0 0 1 1.16-11.83 5 5 0 0 1 .89-1.19z" fill="#ffffff" data-color="1"></path>
        <path fill="#fd7d00" d="M77.65 64.49a4.09 4.09 0 1 1-8.18 0 4.09 4.09 0 0 1 8.18 0z" data-color="2"></path>
    </g>
</svg>